<svg width="57" height="57" viewBox="0 0 57 57" fill="none" xmlns="http://www.w3.org/2000/svg">
<path fill-rule="evenodd" clip-rule="evenodd" d="M32.0043 0.0162681C31.6911 0.0442206 31.0879 0.177384 30.712 0.301495C30.0869 0.507908 29.6596 0.703162 28.0998 1.49506C26.5815 2.26588 26.1436 2.46708 25.5106 2.68486C24.1744 3.1445 23.2875 3.1455 20.5846 2.69035C20.024 2.59595 19.3799 2.49454 19.1532 2.46497C16.4797 2.11634 15.0606 2.59053 13.8303 4.2435C13.3966 4.82632 12.9635 5.59704 12.0937 7.33407C10.7665 9.98462 9.98377 10.7674 7.33317 12.0945C5.59611 12.9643 4.82538 13.3974 4.24255 13.8311C2.58955 15.0613 2.11535 16.4804 2.46399 19.1539C2.49356 19.3805 2.59497 20.0247 2.68937 20.5853C3.14453 23.2881 3.14353 24.1749 2.68388 25.5111C2.46609 26.1442 2.26489 26.5821 1.49406 28.1004C0.702633 29.6592 0.506892 30.0875 0.300993 30.7109C-0.33975 32.6512 0.0176276 34.0532 1.61282 35.8573C1.75566 36.0188 2.43296 36.7185 3.11789 37.4121C3.80286 38.1058 4.48175 38.821 4.62656 39.0015C5.64386 40.2697 5.96047 41.1462 6.3488 43.7697C6.68497 46.0406 6.85341 46.7371 7.28245 47.6314C7.54108 48.1704 7.77624 48.5118 8.14571 48.8845C8.91793 49.6635 10.0711 50.1458 11.8947 50.4526C12.1797 50.5005 12.7939 50.5956 13.2595 50.664C15.6507 51.0149 16.5815 51.3222 17.6404 52.1103C18.1949 52.5229 18.4357 52.744 19.7899 54.0834C20.5026 54.7883 21.2645 55.5108 21.483 55.6889C22.4127 56.4468 23.1985 56.8394 24.0545 56.9735C24.4276 57.032 25.1905 56.9896 25.6389 56.8854C26.5016 56.6851 27.0494 56.4534 28.9982 55.4646C29.7964 55.0597 30.6127 54.6592 30.8122 54.5746C31.9654 54.0861 32.8446 53.9277 34.0045 53.9994C34.6437 54.0389 35.0067 54.0873 36.4443 54.3246C38.2059 54.6153 38.3636 54.6325 39.2776 54.6338C39.9236 54.6348 40.1523 54.6224 40.3962 54.5733C41.3477 54.3816 42.0199 54.0209 42.6568 53.3602C43.289 52.7044 43.6662 52.1026 44.6168 50.233C45.3532 48.7846 45.5913 48.3571 45.9843 47.7777C46.5011 47.0158 47.0156 46.5013 47.7775 45.9845C48.357 45.5915 48.7844 45.3534 50.2329 44.617C52.1025 43.6664 52.7043 43.2893 53.3602 42.6571C54.0272 42.0141 54.3981 41.3168 54.5761 40.371C54.6218 40.128 54.6351 39.8725 54.6338 39.2606C54.6319 38.3657 54.6129 38.1921 54.3246 36.4447C54.0808 34.9667 54.0369 34.6378 53.9991 34.0071C53.929 32.8371 54.0859 31.9661 54.5746 30.8127C54.6591 30.6132 55.0596 29.7969 55.4646 28.9987C56.4534 27.0499 56.6851 26.5021 56.8854 25.6394C56.9896 25.191 57.032 24.4282 56.9735 24.0551C56.8394 23.1991 56.4468 22.4133 55.6889 21.4837C55.5107 21.2651 54.7882 20.5032 54.0834 19.7906C52.7439 18.4364 52.5228 18.1956 52.1102 17.6411C51.31 16.5659 51.0182 15.669 50.646 13.1394C50.4687 11.9351 50.3916 11.4941 50.2623 10.9453C49.9625 9.67382 49.5217 8.77841 48.8843 8.14659C48.5116 7.77713 48.1703 7.54197 47.6312 7.28334C46.737 6.85431 46.0404 6.68587 43.7694 6.34972C41.1431 5.96097 40.2824 5.64993 39.0012 4.62661C38.8206 4.48242 38.1054 3.80417 37.4118 3.11938C35.8227 1.55062 35.5132 1.27251 34.8722 0.837292C33.9289 0.196906 32.9904 -0.0717704 32.0043 0.0162681ZM29.7545 7.80971C29.7042 7.9095 29.3846 8.53164 29.0443 9.19227L28.4256 10.3934L28.4493 10.9776L28.473 11.5617L27.9927 11.5734C27.7286 11.5798 27.5094 11.5845 27.5057 11.5838C27.502 11.5832 27.4881 11.3227 27.4746 11.0051L27.4502 10.4276L26.6427 9.12296L25.8351 7.81835L25.9932 7.79133C26.0802 7.77647 26.3243 7.7687 26.5356 7.77405L26.9198 7.7838L27.4016 8.57151C27.6666 9.00476 27.8909 9.35176 27.9001 9.34264C27.9092 9.33349 28.1069 8.9557 28.3395 8.50306L28.7623 7.68014L29.1739 7.66117C29.4004 7.65074 29.6442 7.63909 29.7158 7.63526L29.8459 7.62831L29.7545 7.80971ZM24.5246 8.50483C24.6077 8.78618 24.6251 8.88676 24.5937 8.90615C24.5707 8.92035 24.1628 9.04677 23.6871 9.18712C23.2115 9.32747 22.8154 9.46005 22.8069 9.48171C22.7798 9.55103 22.9684 10.1139 23.0136 10.0985C23.4071 9.96423 24.5776 9.63827 24.5959 9.65779C24.6289 9.69276 24.8384 10.4002 24.8209 10.4177C24.8135 10.4251 24.4552 10.5372 24.0248 10.6667C23.5944 10.7963 23.2358 10.9086 23.2281 10.9163C23.2171 10.9273 23.3752 11.4948 23.3967 11.5217C23.3995 11.5252 23.8119 11.4047 24.3133 11.2539C24.8146 11.1032 25.2351 10.9799 25.2477 10.9799C25.2742 10.9799 25.5086 11.7693 25.4877 11.7879C25.4661 11.807 22.7788 12.6038 22.7359 12.6038C22.7149 12.6038 22.6818 12.5533 22.6622 12.4915C22.5037 11.99 21.6212 8.99902 21.6212 8.96319C21.6212 8.91351 24.3496 8.07206 24.391 8.10896C24.4035 8.12016 24.4637 8.29827 24.5246 8.50483ZM34.8232 8.68384C35.3207 8.86531 35.8073 9.05393 35.9046 9.10299C36.4386 9.37222 36.6908 9.80097 36.5873 10.2633C36.5061 10.6265 36.2098 10.9558 35.9229 11.0016L35.7934 11.0224L35.9109 11.1399C36.0797 11.3087 36.1416 11.4496 36.1592 11.7052C36.1871 12.11 35.9969 12.4616 35.6446 12.6568C35.4704 12.7533 35.4373 12.7592 35.0795 12.7581L34.6994 12.7569L33.6283 12.3645C33.0391 12.1486 32.5525 11.9683 32.5468 11.9637C32.5392 11.9576 33.5368 9.19462 33.8221 8.43164C33.8381 8.3889 33.8663 8.3539 33.8849 8.3539C33.9035 8.3539 34.3257 8.50237 34.8232 8.68384ZM34.4955 9.45404C34.4856 9.46997 34.4241 9.63081 34.3587 9.81137L34.2398 10.1397L34.7024 10.3053C35.0716 10.4374 35.1936 10.467 35.307 10.4517C35.6725 10.4027 35.7649 9.97785 35.4499 9.79441C35.3662 9.74569 34.5666 9.4284 34.52 9.42543C34.5164 9.42519 34.5054 9.43808 34.4955 9.45404ZM20.5748 11.0062C21.016 11.7233 21.4698 12.4607 21.5833 12.6448L21.7897 12.9796L21.4805 13.1718C21.3104 13.2775 21.1549 13.3639 21.1349 13.3639C21.1149 13.3639 20.522 13.1848 19.8173 12.9658C19.1127 12.7468 18.5316 12.5722 18.5259 12.5779C18.5202 12.5836 18.7574 12.9813 19.053 13.4617C19.3485 13.9421 19.5847 14.3394 19.5779 14.3445C19.571 14.3497 19.3842 14.4645 19.1628 14.5996L18.7603 14.8453L17.7501 13.2052C17.1945 12.3032 16.7459 11.5594 16.7532 11.5523C16.8102 11.4973 17.3458 11.1872 17.3838 11.1872C17.4103 11.1872 18.0121 11.3734 18.7211 11.6011C19.43 11.8288 20.0157 12.0094 20.0226 12.0025C20.0296 11.9956 19.7935 11.5978 19.4979 11.1186C19.2024 10.6394 18.9607 10.2344 18.9607 10.2187C18.9607 10.1931 19.7131 9.70482 19.7554 9.70298C19.7649 9.70257 20.1336 10.289 20.5748 11.0062ZM33.9626 10.9037C33.8743 11.0818 33.7444 11.507 33.7707 11.5319C33.7874 11.5478 34.0265 11.6414 34.302 11.7399C34.8852 11.9485 35.0156 11.9539 35.1745 11.7761C35.3731 11.5538 35.2384 11.3054 34.8376 11.1549C34.0402 10.8554 33.9932 10.8419 33.9626 10.9037ZM40.09 11.334C40.3192 11.493 40.4471 11.6034 40.44 11.6363C40.1644 12.9197 39.5308 15.6789 39.5117 15.6789C39.4898 15.6789 38.805 15.2037 38.7142 15.1255C38.6989 15.1123 38.7253 14.9482 38.7729 14.7608C38.8205 14.5733 38.8563 14.4174 38.8526 14.4143C38.7708 14.3467 37.6004 13.5274 37.5677 13.5148C37.5422 13.505 37.3926 13.5832 37.2352 13.6886L36.9491 13.8801L36.8435 13.8015C36.7855 13.7583 36.6007 13.6247 36.433 13.5046C36.259 13.3801 36.141 13.2733 36.1582 13.2561C36.2209 13.1934 39.6424 11.0874 39.6847 11.0855C39.709 11.0844 39.8914 11.1963 40.09 11.334ZM38.8296 12.6398L38.2965 12.9906L38.3811 13.0555C38.66 13.2695 39.0683 13.5333 39.0832 13.5092C39.1148 13.4582 39.3845 12.3543 39.3735 12.3212C39.3675 12.3035 39.1228 12.4469 38.8296 12.6398ZM15.9355 13.6929C16.9168 14.0341 17.4875 15.069 17.2382 16.0549C17.1376 16.4526 16.9633 16.7505 16.6489 17.0616C16.2282 17.4781 15.7802 17.6612 15.1931 17.6566C14.3437 17.6499 13.5961 17.085 13.3073 16.2318C13.21 15.9442 13.2171 15.3564 13.3217 15.0527C13.5776 14.3089 14.2249 13.7393 14.9646 13.6069C15.2325 13.559 15.659 13.5968 15.9355 13.6929ZM43.1426 14.3669C43.7862 14.5925 44.3415 15.2013 44.5116 15.8676C44.6487 16.4047 44.4957 17.0417 44.1257 17.4739L44.0061 17.6136L43.6985 17.2371L43.3908 16.8606L43.5002 16.6485C43.7542 16.1561 43.5565 15.595 43.0378 15.3359C42.86 15.247 42.7852 15.2297 42.5774 15.2297C42.3705 15.2297 42.2946 15.2471 42.1206 15.334C41.8751 15.4567 41.6173 15.7181 41.516 15.947C41.4192 16.1659 41.4189 16.5043 41.5154 16.7224C41.6042 16.9233 41.8412 17.1836 42.0167 17.2732C42.2109 17.3722 42.4444 17.3904 42.6719 17.3243C42.7778 17.2935 42.8715 17.2683 42.8802 17.2683C42.8969 17.2683 43.4271 17.9116 43.4716 17.9859C43.5085 18.0475 43.122 18.223 42.7987 18.2914C42.2112 18.4158 41.6067 18.2145 41.1363 17.7378C40.7608 17.3572 40.5405 16.8932 40.5007 16.3987C40.4263 15.474 41.0883 14.5789 42.0418 14.3152C42.3128 14.2402 42.8537 14.2656 43.1426 14.3669ZM14.9353 14.5849C14.7093 14.6599 14.592 14.7333 14.4537 14.8864C14.0755 15.3051 14.0837 15.8901 14.4738 16.317C14.7153 16.5812 14.96 16.6936 15.2981 16.6957C15.5985 16.6974 15.7958 16.6236 16.0118 16.4284C16.2162 16.2438 16.3134 16.0229 16.3288 15.7083C16.34 15.4783 16.3294 15.4167 16.2473 15.2338C16.1359 14.9855 15.8923 14.7416 15.6537 14.6393C15.4452 14.5499 15.1158 14.525 14.9353 14.5849ZM13.0732 18.36C14.0023 18.7704 14.782 19.1141 14.8057 19.1239C14.8295 19.1336 14.8489 19.1593 14.8489 19.181C14.8491 19.2391 14.4937 20.0325 14.4676 20.0325C14.4554 20.0325 14.075 19.8691 13.6224 19.6694C13.1698 19.4697 12.7935 19.3122 12.7862 19.3195C12.7789 19.3268 12.947 19.5951 13.1598 19.9159C13.3726 20.2365 13.5533 20.5238 13.5613 20.5542C13.5693 20.5846 13.5298 20.711 13.4736 20.835L13.3713 21.0605L13.1513 21.0973C13.0303 21.1175 12.7058 21.1688 12.4302 21.2114C12.1547 21.254 11.9181 21.2979 11.9044 21.309C11.8908 21.3202 12.2543 21.4922 12.712 21.6912C13.1699 21.8902 13.5506 22.0691 13.5582 22.0888C13.5822 22.1513 13.2017 22.953 13.1536 22.9414C13.0879 22.9257 9.72231 21.443 9.69194 21.4165C9.65863 21.3874 9.92303 20.7885 9.98325 20.7566C10.0083 20.7434 10.5497 20.643 11.1863 20.5336C11.823 20.4243 12.3486 20.3307 12.3544 20.3257C12.3602 20.3207 12.0691 19.8545 11.7076 19.2897C11.0528 18.2668 11.0505 18.2625 11.097 18.1543C11.2708 17.75 11.3367 17.6138 11.3587 17.6138C11.3726 17.6138 12.1441 17.9496 13.0732 18.36ZM46.4127 18.7577C46.5077 18.9876 46.59 19.1876 46.5954 19.2021C46.6009 19.2166 46.255 19.3734 45.8266 19.5505C45.3983 19.7276 45.0481 19.8813 45.0482 19.8921C45.0484 19.9028 45.5299 20.0742 46.1181 20.273L47.1877 20.6344L47.3962 21.1379C47.5109 21.4148 47.6048 21.6513 47.6048 21.6635C47.6048 21.6757 47.1422 21.5312 46.5768 21.3425C46.0115 21.1538 45.5325 21.0056 45.5125 21.0132C45.4925 21.0208 45.1739 21.5263 44.8045 22.1364C44.4351 22.7466 44.1244 23.2458 44.1142 23.2458C44.0995 23.2458 43.7786 22.4977 43.6829 22.2403C43.6701 22.2058 43.8275 21.9022 44.1005 21.4346C44.3445 21.0166 44.5251 20.6716 44.5082 20.6559C44.4915 20.6403 44.3204 20.5766 44.1281 20.5142L43.7784 20.4008L43.4238 20.5441C43.2288 20.6229 43.0591 20.6811 43.0467 20.6734C43.0069 20.6489 42.6851 19.8269 42.7068 19.8052C42.7267 19.7853 46.1869 18.3445 46.2227 18.3413C46.2322 18.3404 46.3177 18.5278 46.4127 18.7577ZM33.2856 19.6333C34.9759 19.9611 36.1406 21.1978 36.5165 23.0639C36.6119 23.5373 36.6456 24.5725 36.5831 25.1092C36.3752 26.8963 35.3896 28.2627 33.9307 28.7864C32.7601 29.2065 31.3105 29.0914 30.2936 28.4975C29.076 27.7864 28.3595 26.4973 28.2207 24.7679C28.1773 24.2274 28.218 23.559 28.3261 23.0385C28.73 21.0929 30.0373 19.8125 31.8522 19.585C32.1973 19.5417 32.943 19.5668 33.2856 19.6333ZM24.7482 19.7273C25.382 19.8521 25.846 20.0848 26.2763 20.4935C26.5759 20.7781 26.8007 21.1245 26.9228 21.4897C27.24 22.4387 27.0547 23.4146 26.4403 24.0312L26.1913 24.281L26.3575 24.3877C26.7553 24.643 27.1406 25.1808 27.2474 25.6299C27.3961 26.2554 27.2741 27.0289 26.9397 27.5817C26.3058 28.6295 24.8697 29.1945 23.2979 29.0144C21.9415 28.8591 21.0313 28.1724 20.6341 27.0049C20.525 26.6843 20.4331 26.2168 20.4716 26.1783C20.4892 26.1607 20.9518 26.1511 21.5335 26.1563L22.5642 26.1654L22.6098 26.3209C22.6857 26.5799 22.8666 26.8456 23.0511 26.9691C23.315 27.1457 23.5332 27.1939 24.0004 27.1788C24.3442 27.1677 24.4308 27.1528 24.5957 27.0761C24.8074 26.9777 25.0088 26.7962 25.0984 26.623C25.1871 26.4514 25.2021 26.0775 25.1281 25.8836C25.0023 25.5543 24.6549 25.2967 24.2306 25.2183C24.1188 25.1976 23.8124 25.1807 23.5498 25.1807H23.0724V24.3371V23.4934L23.6685 23.4819C24.2401 23.4709 24.2726 23.4664 24.4619 23.3734C24.7045 23.2543 24.9151 23.0224 24.9926 22.7893C25.1285 22.38 24.978 21.8906 24.6471 21.6655C24.421 21.5118 24.2518 21.4738 23.8671 21.4907C23.4778 21.5078 23.2739 21.5944 23.0498 21.8375C22.9144 21.9845 22.7615 22.3108 22.7615 22.4529C22.7615 22.5197 22.7374 22.521 21.6996 22.5121L20.6378 22.5029L20.6474 22.3475C20.6654 22.056 20.7968 21.6052 20.9656 21.255C21.2577 20.6494 21.8121 20.1426 22.4524 19.8956C23.1633 19.6215 23.9269 19.5655 24.7482 19.7273ZM31.9299 21.6018C31.426 21.724 30.974 22.105 30.7172 22.6239C30.3416 23.3826 30.2587 24.4571 30.5023 25.4095C30.7117 26.2283 31.2343 26.8197 31.9021 26.9936C32.1549 27.0595 32.6708 27.0614 32.9111 26.9975C33.6766 26.7937 34.2114 26.1012 34.3896 25.0831C34.4572 24.6968 34.4577 23.9051 34.3906 23.5222C34.2097 22.4912 33.6773 21.8078 32.8964 21.6044C32.6602 21.5429 32.1782 21.5416 31.9299 21.6018ZM10.9379 25.4811C10.985 25.4924 11.0106 25.5187 11.0004 25.5452C10.9909 25.57 10.9515 25.844 10.9128 26.1543C10.6337 28.3907 10.7685 30.5849 11.3156 32.7131C11.4011 33.0456 11.4731 33.3542 11.4755 33.3989C11.4794 33.4687 11.4522 33.4887 11.2807 33.5422C11.0964 33.5997 11.0791 33.6 11.0514 33.5474C11.0062 33.4614 10.7518 32.4427 10.6528 31.9509C10.2421 29.9125 10.1903 27.8 10.4991 25.6871L10.5388 25.4161L10.6984 25.4391C10.7862 25.4517 10.894 25.4707 10.9379 25.4811ZM46.6834 25.4719C46.7159 25.5566 46.8414 26.6264 46.8782 27.1329C46.9236 27.757 46.9236 29.0456 46.8782 29.6397C46.8296 30.2749 46.7269 31.0762 46.6172 31.6765C46.5248 32.1824 46.2124 33.474 46.163 33.5546C46.1419 33.5891 46.0915 33.5847 45.9241 33.5339L45.712 33.4695L45.7963 33.169C46.2898 31.41 46.5231 29.3809 46.4335 27.6257C46.3964 26.8994 46.3335 26.235 46.2548 25.7378C46.2356 25.6166 46.2262 25.5112 46.2338 25.5036C46.2493 25.4881 46.5197 25.4322 46.6077 25.4264C46.6389 25.4243 46.673 25.4448 46.6834 25.4719ZM23.658 31.0011C24.5157 31.1981 25.1406 31.6072 25.5563 32.244C25.8596 32.7086 25.9855 33.1682 25.9829 33.8014C25.9772 35.1929 25.1081 36.2432 23.6944 36.567C23.4799 36.6161 23.1927 36.6291 22.0272 36.6424L20.6192 36.6585V33.7841V30.9098L22.0099 30.9259C23.1565 30.9393 23.4458 30.9525 23.658 31.0011ZM30.9005 33.7606C31.5551 35.3154 32.0907 36.6024 32.0907 36.6204C32.0907 36.6405 31.7987 36.6497 31.3407 36.644L30.5907 36.6347L30.3988 36.151L30.2069 35.6672L29.0131 35.6582L27.8193 35.6491L27.6309 36.1419L27.4425 36.6347L26.6914 36.644C26.1211 36.6511 25.9403 36.6432 25.9403 36.6114C25.9403 36.5884 26.463 35.3326 27.1019 33.8207C27.7407 32.3088 28.2769 31.0365 28.2933 30.9934C28.3233 30.915 28.3236 30.9149 29.0168 30.9243L29.7103 30.9336L30.9005 33.7606ZM33.3919 32.1602C33.7597 32.8158 34.0722 33.3555 34.0863 33.3595C34.1004 33.3635 34.4152 32.8238 34.7858 32.1601L35.4595 30.9535L36.2456 30.9522C36.678 30.9515 37.0317 30.9606 37.0317 30.9726C37.0317 30.9845 36.5341 31.8765 35.926 32.9549L34.8203 34.9156V35.7838V36.652H34.0947H33.3691V35.782V34.912L32.2922 33.0092C31.7 31.9627 31.1927 31.0711 31.1649 31.028L31.1144 30.9496L31.9188 30.9589L32.7232 30.9682L33.3919 32.1602ZM22.0702 33.3955C22.0702 34.0368 22.06 34.7365 22.0477 34.9503L22.0253 35.339H22.6143C23.1022 35.339 23.2411 35.3274 23.423 35.2711C23.8574 35.1369 24.1796 34.8576 24.3797 34.4419C24.4881 34.2166 24.5056 34.1439 24.5176 33.8681C24.5402 33.3513 24.4096 33.0148 24.0567 32.6811C23.8451 32.481 23.5281 32.3175 23.249 32.2646C23.1467 32.2452 22.8397 32.2293 22.5667 32.2293H22.0704L22.0702 33.3955ZM28.6898 33.4154C28.5201 33.8558 28.3605 34.2666 28.3351 34.3284L28.2889 34.4406H29.0109H29.7329L29.3871 33.5509C29.1968 33.0616 29.0315 32.6508 29.0197 32.6379C29.0079 32.6251 28.8594 32.975 28.6898 33.4154ZM43.9535 35.8316C44.1493 35.9624 44.2521 36.0522 44.2406 36.0821C44.2307 36.1078 44.0032 36.4576 43.7349 36.8593C43.4666 37.261 43.2395 37.6095 43.2303 37.6337C43.2146 37.6745 43.7551 38.0625 43.7827 38.0303C43.7891 38.0229 43.9989 37.7097 44.2488 37.3344C44.4987 36.9591 44.7114 36.652 44.7214 36.652C44.7352 36.652 45.3279 37.0381 45.3873 37.0858C45.3935 37.0907 45.1981 37.3955 44.9532 37.7631C44.7082 38.1307 44.4975 38.4488 44.4849 38.4702C44.4643 38.5049 44.5368 38.5618 44.9128 38.8059L45.0023 38.8641L45.5314 38.069C45.8223 37.6317 46.0742 37.2739 46.091 37.2739C46.1135 37.2739 46.6772 37.6343 46.7691 37.7073C46.7883 37.7226 45.1759 40.1247 45.1512 40.1175C45.1207 40.1087 42.0353 38.0704 41.9926 38.0309C41.949 37.9904 43.5594 35.5755 43.6101 35.6053C43.6312 35.6176 43.7857 35.7195 43.9535 35.8316ZM13.2905 35.8758C13.97 36.036 14.5967 36.6426 14.8241 37.3603C14.933 37.7039 14.9305 38.2769 14.8189 38.5601C14.741 38.7579 14.4604 39.1743 14.4051 39.1743C14.3734 39.1743 13.8469 38.3984 13.8469 38.3518C13.8469 38.3362 13.8799 38.2552 13.9201 38.1718C13.9793 38.0495 13.9902 37.9766 13.9772 37.7939C13.9484 37.3937 13.7008 37.0463 13.3234 36.877C13.1385 36.794 13.0795 36.7838 12.8657 36.7977C12.5504 36.8182 12.2802 36.9475 12.055 37.1857C11.8424 37.4105 11.7611 37.6389 11.7796 37.9592C11.8124 38.5252 12.3168 39.0322 12.8103 38.9949L12.9526 38.9842L12.6741 38.5529C12.521 38.3157 12.3957 38.1101 12.3957 38.096C12.3957 38.0819 12.5337 37.9776 12.7024 37.8642L13.0091 37.6579L13.5858 38.5232C13.903 38.9991 14.1576 39.393 14.1516 39.3986C14.1389 39.4104 12.4329 40.5312 12.3733 40.5669C12.3485 40.5817 12.2596 40.4766 12.1376 40.2885L11.9418 39.9862L12.0737 39.8745C12.1463 39.813 12.2173 39.7624 12.2316 39.7622C12.2458 39.7619 12.2575 39.7478 12.2575 39.7309C12.2575 39.7141 12.1992 39.6893 12.1279 39.6759C11.6285 39.5823 11.15 39.0943 10.9187 38.443C10.7946 38.0934 10.7888 37.5407 10.9058 37.2048C11.1165 36.5999 11.6279 36.1181 12.2747 35.9153C12.6057 35.8114 12.9591 35.7977 13.2905 35.8758ZM41.3417 39.9066L40.6424 40.5871L40.8843 40.8296L41.1262 41.0722L41.7338 40.4883L42.3415 39.9044L42.6322 40.1976L42.9229 40.4909L42.3074 41.082L41.6918 41.6731L41.9241 41.9071L42.1563 42.1411L42.8506 41.4701L43.5448 40.7991L43.8385 41.095L44.1322 41.3909L43.2684 42.2357C42.7933 42.7003 42.3191 43.1555 42.2146 43.2472L42.0245 43.4139L40.7115 42.0507C39.9894 41.3009 39.3939 40.6753 39.3883 40.6604C39.3827 40.6455 39.8473 40.1809 40.4208 39.6279L41.4636 38.6227L41.7523 38.9244L42.0411 39.2261L41.3417 39.9066ZM16.4701 39.3596C16.6616 39.528 16.8184 39.6725 16.8184 39.6808C16.8184 39.689 16.4859 40.0752 16.0794 40.539C15.673 41.0028 15.3037 41.4568 15.2588 41.548C15.0731 41.9253 15.197 42.3551 15.5554 42.5767C15.7025 42.6676 15.7569 42.6813 15.9719 42.6813C16.3152 42.6813 16.455 42.5876 16.9519 42.0243C17.1695 41.7775 17.5091 41.3929 17.7063 41.1695L18.0651 40.7633L18.4259 41.0802C18.7346 41.3513 18.7807 41.405 18.7442 41.4518C18.7207 41.4819 18.3757 41.8782 17.9774 42.3325C17.2174 43.1996 16.9589 43.4332 16.6157 43.5633C16.2315 43.7088 15.8489 43.7095 15.4672 43.5652C15.0182 43.3956 14.5594 42.9779 14.3447 42.5434C14.2259 42.3031 14.2111 42.2431 14.1983 41.9511C14.1806 41.5469 14.2635 41.2584 14.499 40.9037C14.6653 40.6531 16.0581 39.0369 16.0986 39.0474C16.1113 39.0506 16.2785 39.1911 16.4701 39.3596ZM39.0672 41.4497C39.1829 41.6369 39.2773 41.8041 39.2769 41.8211C39.2765 41.8381 39.0805 41.9675 38.8414 42.1086C38.6023 42.2496 38.3747 42.3909 38.3357 42.4225C38.2657 42.4791 38.2757 42.4979 39.0343 43.7485C39.4576 44.4462 39.7982 45.0214 39.7913 45.0266C39.653 45.1315 38.9959 45.4981 38.9723 45.4835C38.9544 45.4724 38.6117 44.9229 38.2107 44.2624C37.8098 43.6018 37.4679 43.0403 37.4511 43.0146C37.4273 42.9781 37.3123 43.0337 36.9314 43.2654C36.6625 43.4291 36.4251 43.5668 36.4039 43.5713C36.3434 43.5844 35.9187 42.8609 35.97 42.8321C35.9934 42.8191 36.6422 42.4261 37.4118 41.9589C38.1815 41.4917 38.8214 41.1094 38.834 41.1093C38.8465 41.1093 38.9514 41.2624 39.0672 41.4497ZM20.9125 42.551C21.2225 42.7053 21.3103 42.7644 21.3106 42.8188C21.3112 42.929 21.0349 46.6382 21.014 46.8009L20.9953 46.9469L20.5442 46.7209L20.0931 46.4949L20.1165 46.1948C20.1294 46.0297 20.1466 45.8708 20.1549 45.8417C20.1659 45.8027 19.9793 45.6908 19.4413 45.4142L18.7128 45.0396L18.569 45.174C18.4898 45.2479 18.3742 45.3541 18.3121 45.41L18.199 45.5117L17.7506 45.2896C17.5039 45.1674 17.3022 45.0575 17.3022 45.0453C17.3022 45.0238 20.4764 42.3531 20.502 42.3531C20.509 42.3531 20.6938 42.4421 20.9125 42.551ZM35.915 44.9619C36.2239 45.95 36.4714 46.774 36.4649 46.793C36.4495 46.8378 35.8048 47.0315 35.746 47.0089C35.7213 46.9995 35.1902 46.6779 34.5659 46.2943C33.9415 45.9108 33.4265 45.6018 33.4215 45.6076C33.4164 45.6134 33.5489 46.0536 33.7158 46.5857C33.8828 47.1178 34.0091 47.5633 33.9966 47.5757C33.9576 47.6143 33.1284 47.8595 33.1075 47.8386C33.0966 47.8277 32.8342 47.005 32.5244 46.0102C32.1445 44.7907 31.9737 44.1947 31.9999 44.1805C32.0213 44.1689 32.18 44.1167 32.3525 44.0646L32.6662 43.9697L33.7974 44.6817C34.4195 45.0733 34.9571 45.4089 34.992 45.4276C35.0652 45.4667 35.1019 45.6059 34.684 44.2595C34.5464 43.8163 34.4439 43.4431 34.4562 43.4302C34.4906 43.3943 35.2455 43.153 35.3027 43.1596C35.338 43.1637 35.5232 43.7088 35.915 44.9619ZM19.878 44.0176C19.4441 44.4028 19.4084 44.4433 19.4657 44.4852C19.6142 44.5937 20.214 44.8795 20.2374 44.8528C20.2661 44.8199 20.3907 43.6334 20.3678 43.6104C20.3597 43.6023 20.1393 43.7856 19.878 44.0176ZM24.2563 43.8751C25.2197 44.0846 25.4244 44.1481 25.6901 44.3199C26.1519 44.6183 26.3816 45.1158 26.289 45.6167C26.2041 46.0763 25.9508 46.4233 25.5645 46.6096C25.4386 46.6703 25.3309 46.7229 25.3252 46.7266C25.3195 46.7302 25.464 47.0556 25.6463 47.4497C25.8287 47.8438 25.972 48.1722 25.9647 48.1795C25.9521 48.192 24.8675 47.9612 24.8503 47.9423C24.8457 47.9373 24.7167 47.6533 24.5636 47.3113L24.2851 46.6893L24.033 46.6303C23.8942 46.5978 23.7649 46.5706 23.7455 46.5698C23.7261 46.569 23.66 46.8043 23.5985 47.0926C23.5371 47.3809 23.4802 47.6233 23.4721 47.6314C23.4641 47.6394 23.2543 47.6021 23.0059 47.5484C22.6597 47.4736 22.5541 47.4381 22.5541 47.3965C22.5541 47.3523 23.2668 44.0572 23.3361 43.7812C23.3472 43.7369 23.3782 43.7006 23.4049 43.7006C23.4315 43.7006 23.8147 43.7791 24.2563 43.8751ZM29.7334 44.4003C29.7782 44.4549 31.5097 48.1633 31.4961 48.1752C31.4906 48.18 31.2613 48.1898 30.9867 48.1968L30.4875 48.2096L30.3475 47.8887L30.2075 47.5678L29.7065 47.5872C29.431 47.5979 29.0645 47.6152 28.8921 47.6258L28.5787 47.645L28.486 47.9273C28.4349 48.0826 28.3793 48.2312 28.3624 48.2577C28.3393 48.2938 28.2061 48.3101 27.8293 48.3229L27.327 48.3399L27.7569 47.2037C27.9933 46.5787 28.3289 45.6908 28.5026 45.2306L28.8184 44.3938L29.202 44.3828C29.413 44.3768 29.6109 44.3685 29.6419 44.3645C29.6728 44.3604 29.714 44.3765 29.7334 44.4003ZM24.1081 44.7631C24.1076 44.7773 24.0618 44.9911 24.0063 45.2381C23.9507 45.4852 23.9162 45.6969 23.9294 45.7085C23.9877 45.7596 24.718 45.8841 24.8726 45.8692C25.2881 45.8293 25.4801 45.4184 25.2249 45.1151C25.1017 44.9687 24.9731 44.911 24.5625 44.8182C24.1764 44.731 24.1095 44.7228 24.1081 44.7631ZM29.0942 46.1562L28.88 46.7757L29.3019 46.7733C29.5339 46.7719 29.7492 46.7603 29.7804 46.7474C29.8288 46.7272 29.8005 46.6405 29.5816 46.1393C29.4412 45.8177 29.3222 45.5507 29.3173 45.5457C29.3124 45.5408 29.212 45.8155 29.0942 46.1562Z" fill="#17449C"/>
</svg>
