<svg width="58" height="58" viewBox="0 0 58 58" fill="none" xmlns="http://www.w3.org/2000/svg">
<path fill-rule="evenodd" clip-rule="evenodd" d="M31.2508 0.306784C31.6333 0.180496 32.2471 0.0449965 32.5658 0.0165535C33.5692 -0.0730295 34.5241 0.20036 35.4839 0.851981C36.1362 1.29483 36.4512 1.57782 38.0681 3.17411C38.7739 3.87091 39.5017 4.56106 39.6854 4.70778C40.9891 5.74906 41.8649 6.06555 44.5373 6.46111C46.8481 6.80317 47.5569 6.97456 48.4668 7.41112C49.0154 7.67428 49.3627 7.91357 49.742 8.28951C50.3905 8.93242 50.8391 9.84354 51.144 11.1373C51.2757 11.6957 51.3542 12.1445 51.5345 13.3699C51.9133 15.9439 52.2101 16.8565 53.0244 17.9506C53.4443 18.5148 53.6692 18.7599 55.0322 20.1378C55.7494 20.8629 56.4846 21.6382 56.6659 21.8606C57.4371 22.8066 57.8366 23.6061 57.9731 24.4771C58.0326 24.8568 57.9894 25.633 57.8834 26.0892C57.6796 26.9671 57.4438 27.5245 56.4377 29.5075C56.0256 30.3196 55.618 31.1502 55.532 31.3533C55.0348 32.5269 54.8751 33.4132 54.9464 34.6037C54.9849 35.2455 55.0296 35.5802 55.2777 37.084C55.571 38.8621 55.5904 39.0387 55.5923 39.9494C55.5936 40.572 55.5801 40.832 55.5336 41.0793C55.3524 42.0416 54.975 42.7512 54.2963 43.4054C53.629 44.0487 53.0166 44.4325 51.1142 45.3998C49.6403 46.1491 49.2053 46.3913 48.6158 46.7912C47.8404 47.3171 47.317 47.8406 46.791 48.6159C46.3911 49.2055 46.1489 49.6405 45.3995 51.1143C44.4323 53.0167 44.0485 53.629 43.4052 54.2964C42.7571 54.9687 42.0731 55.3357 41.1049 55.5307C40.8567 55.5807 40.624 55.5933 39.9667 55.5923C39.0366 55.591 38.8761 55.5734 37.0837 55.2776C35.6209 55.0362 35.2515 54.987 34.601 54.9467C33.4208 54.8738 32.5262 55.035 31.3528 55.5321C31.1497 55.6181 30.3191 56.0256 29.5069 56.4377C27.524 57.4438 26.9665 57.6796 26.0887 57.8834C25.6324 57.9894 24.8562 58.0326 24.4765 57.9731C23.6055 57.8366 22.8059 57.4371 21.8599 56.6659C21.6375 56.4846 20.8623 55.7495 20.1371 55.0322C18.7592 53.6693 18.5141 53.4444 17.9499 53.0245C16.8724 52.2226 15.9253 51.9099 13.4921 51.5528C13.0184 51.4833 12.3934 51.3865 12.1033 51.3377C10.2478 51.0255 9.07438 50.5347 8.28862 49.7421C7.91267 49.3629 7.67338 49.0155 7.41021 48.467C6.97364 47.5571 6.80225 46.8483 6.46019 44.5376C6.06504 41.8681 5.74288 40.9762 4.70773 39.6857C4.56038 39.502 3.86958 38.7743 3.17259 38.0685C2.47564 37.3627 1.78646 36.6507 1.64111 36.4864C0.0179369 34.6506 -0.345711 33.2241 0.306274 31.2497C0.515785 30.6153 0.714959 30.1795 1.52027 28.5933C2.30463 27.0484 2.50936 26.6029 2.73096 25.9587C3.19868 24.5991 3.1997 23.6967 2.73655 20.9464C2.6405 20.376 2.53731 19.7206 2.50721 19.4899C2.15246 16.7696 2.63498 15.3255 4.31698 14.0738C4.91004 13.6324 5.69429 13.1918 7.46183 12.3067C10.1589 10.9563 10.9554 10.1598 12.3059 7.46274C13.1909 5.69523 13.6316 4.91099 14.073 4.31794C15.3248 2.63598 16.7688 2.15347 19.4892 2.50821C19.7199 2.53831 20.3753 2.6415 20.9458 2.73755C23.6961 3.20069 24.5985 3.19967 25.9581 2.73196C26.6023 2.51036 27.0479 2.30563 28.5928 1.52129C30.1799 0.715498 30.6147 0.516819 31.2508 0.306784Z" fill="#3171FB"/>
<g clip-path="url(#clip0_4398_2052)">
<path d="M11.2829 27.6645C11.2941 27.4985 11.2874 27.3616 11.2582 27.254C11.2022 27.0521 11.079 26.9422 10.8886 26.9287C10.7766 26.9197 10.687 26.9623 10.6197 27.0566C10.5525 27.1508 10.4898 27.2988 10.4271 27.5052L10.3195 27.8574C10.2142 28.2028 10.1089 28.4406 10.0059 28.5684C9.83338 28.7838 9.58022 28.8802 9.24865 28.8556C8.9462 28.8331 8.70424 28.7053 8.52053 28.4697C8.33682 28.2342 8.26065 27.9045 8.29202 27.4783C8.3189 27.1216 8.4354 26.8255 8.64151 26.5877C8.84762 26.35 9.13215 26.2378 9.49061 26.2535L9.44132 26.9332C9.23745 26.9309 9.08734 27.0072 8.98877 27.1665C8.9238 27.2719 8.88571 27.4065 8.87451 27.5702C8.86107 27.7519 8.88571 27.9 8.95292 28.0144C9.01789 28.1288 9.11647 28.1893 9.24865 28.2006C9.36963 28.2095 9.46372 28.1624 9.53093 28.0592C9.57574 27.9942 9.63399 27.8506 9.70344 27.6286L9.88715 27.0566C9.9678 26.8053 10.0619 26.6191 10.1739 26.4958C10.3464 26.3051 10.5839 26.2221 10.8863 26.2445C11.1955 26.267 11.442 26.4038 11.6279 26.655C11.8138 26.9063 11.8923 27.2472 11.8609 27.6779C11.8295 28.1176 11.7018 28.4585 11.4823 28.6941C11.2627 28.9318 10.9782 29.0373 10.6265 29.0103L10.6758 28.3352C10.8326 28.3262 10.9491 28.2925 11.032 28.2342C11.1798 28.1288 11.2627 27.9381 11.2829 27.66V27.6645Z" fill="white"/>
<path d="M11.8277 23.6268L11.5006 24.8313L12.11 25.2418L11.9151 25.9574L8.9668 23.8982L9.17739 23.1266L12.7597 22.8596L12.5581 23.5999L11.83 23.6268H11.8277ZM11.2139 23.6649L9.81813 23.7232L10.9898 24.4949L11.2161 23.6649H11.2139Z" fill="white"/>
<path d="M10.8254 19.0417L11.3698 19.2929L10.9441 20.2126L13.4735 21.3835L13.1755 22.0295L10.6461 20.8586L10.2182 21.7828L9.67383 21.5316L10.8254 19.0394V19.0417Z" fill="white"/>
<path d="M11.3203 18.2678L11.6945 17.6733L14.5599 19.4813L14.1857 20.078L11.3203 18.27V18.2678Z" fill="white"/>
<path d="M15.3892 17.5569C15.4968 17.429 15.5685 17.3124 15.6088 17.2092C15.6827 17.0118 15.6446 16.8525 15.499 16.7292C15.4139 16.6574 15.3153 16.6394 15.2055 16.6753C15.098 16.7112 14.9568 16.7965 14.7866 16.9266L14.4953 17.1486C14.2086 17.3685 13.9845 17.4986 13.8277 17.5412C13.5611 17.6152 13.3012 17.5457 13.0458 17.3326C12.8128 17.1374 12.6918 16.8907 12.6784 16.5923C12.6672 16.294 12.7971 15.98 13.0727 15.6525C13.3012 15.3788 13.5701 15.2061 13.877 15.1343C14.1839 15.0625 14.4796 15.1388 14.7619 15.3608L14.3251 15.8835C14.1615 15.7624 13.9935 15.7377 13.821 15.8095C13.7067 15.8566 13.5969 15.9441 13.4916 16.0697C13.3751 16.2088 13.3102 16.3456 13.2967 16.4757C13.2833 16.6058 13.3259 16.7135 13.4267 16.7987C13.5185 16.8772 13.6238 16.8929 13.7381 16.8503C13.812 16.8234 13.9442 16.7404 14.1279 16.6013L14.6096 16.2446C14.8202 16.0876 15.0084 15.9934 15.1697 15.9575C15.4206 15.9059 15.6625 15.9755 15.8933 16.1706C16.1308 16.3703 16.2518 16.626 16.2562 16.9378C16.2607 17.2496 16.1241 17.5726 15.8463 17.9046C15.564 18.2433 15.2638 18.4452 14.9456 18.508C14.6297 18.573 14.3363 18.4923 14.0652 18.2657L14.4998 17.7475C14.632 17.8305 14.7485 17.8732 14.8471 17.8732C15.0285 17.8732 15.2078 17.7677 15.387 17.5546L15.3892 17.5569Z" fill="white"/>
<path d="M17.1622 12.7136L15.8605 13.8038L16.3601 14.4027L17.5005 13.4471L17.8768 13.898L16.7365 14.8536L17.6483 15.9438L17.1084 16.3946L14.9375 13.7971L16.7791 12.2538L17.1599 12.7114L17.1622 12.7136Z" fill="white"/>
<path d="M20.5687 13.0748L19.4889 13.7006L19.6345 14.4207L18.9937 14.7908L18.3418 11.2511L19.0341 10.8496L21.7695 13.1825L21.1064 13.5683L20.5687 13.0748V13.0748ZM20.105 12.6688L19.0722 11.7267L19.3612 13.0995L20.105 12.6688V12.6688Z" fill="white"/>
<path d="M24.4234 12.0049C24.2577 12.3055 23.9888 12.5186 23.6147 12.6419C23.1532 12.7967 22.7409 12.7698 22.3758 12.5634C22.0128 12.3548 21.7417 11.9892 21.5692 11.471C21.3811 10.9102 21.3855 10.428 21.5849 10.0219C21.7574 9.66977 22.0464 9.42527 22.4497 9.29068C22.9896 9.10899 23.4444 9.15385 23.8118 9.42527C24.0157 9.5778 24.1568 9.75277 24.2353 9.95017L23.5632 10.1745C23.4691 10.0354 23.3727 9.93671 23.2786 9.88287C23.1106 9.78417 22.9067 9.7752 22.667 9.85595C22.4228 9.93895 22.2637 10.1005 22.1898 10.345C22.1159 10.5895 22.1383 10.8923 22.2593 11.2512C22.3802 11.6101 22.546 11.8568 22.7544 11.9869C22.9627 12.117 23.1823 12.1417 23.413 12.0654C23.6483 11.9869 23.8029 11.8501 23.8746 11.6527C23.9149 11.5473 23.9306 11.4037 23.9194 11.222L24.5848 11C24.643 11.3701 24.5915 11.7043 24.4257 12.0049H24.4234Z" fill="white"/>
<path d="M27.5379 8.2948L27.6208 8.88923L26.6171 9.02831L27.0002 11.7919L26.2945 11.8906L25.9114 9.12701L24.9032 9.26608L24.8203 8.67165L27.5379 8.2948Z" fill="white"/>
<path d="M28.4531 8.2925L29.1566 8.28577L29.1924 11.6752L28.489 11.6819L28.4531 8.2925V8.2925Z" fill="white"/>
<path d="M31.4325 11.942C30.953 11.8747 30.6058 11.693 30.3885 11.3969C30.0927 11.029 29.9874 10.5445 30.0703 9.94112C30.1555 9.3265 30.3907 8.88684 30.7716 8.62664C31.0606 8.40008 31.4459 8.32157 31.9253 8.38887C32.4048 8.45616 32.752 8.63786 32.9693 8.93395C33.2651 9.29061 33.3704 9.77513 33.283 10.3897C33.2001 10.9932 32.9671 11.4306 32.584 11.7042C32.295 11.9308 31.9097 12.0093 31.4302 11.942H31.4325ZM32.2188 11.1322C32.4093 10.9505 32.5325 10.6701 32.584 10.2911C32.6355 9.9142 32.5952 9.61138 32.4608 9.38258C32.3264 9.15378 32.1203 9.02143 31.8424 8.98106C31.5646 8.94292 31.3294 9.0147 31.1345 9.1964C30.9396 9.37809 30.8164 9.65848 30.7648 10.0376C30.7133 10.4167 30.7536 10.7195 30.8903 10.946C31.027 11.1748 31.2353 11.3072 31.5131 11.3453C31.7909 11.3835 32.0262 11.3117 32.2188 11.13V11.1322Z" fill="white"/>
<path d="M36.2126 13.1781L35.5472 12.9381L35.0611 10.2037L34.2456 12.4692L33.625 12.2449L34.7721 9.05518L35.471 9.30641L35.9393 11.9914L36.7413 9.76401L37.3619 9.98832L36.2148 13.1781H36.2126Z" fill="white"/>
<path d="M40.0874 13.9947L39.4982 13.5618L38.7141 14.634L38.1562 14.2257L40.1569 11.4913L41.4966 12.4738C41.6848 12.6174 41.8147 12.7497 41.8864 12.8686C41.9581 12.9875 41.9985 13.1154 42.0097 13.2522C42.0186 13.3644 42.0097 13.4765 41.9828 13.5864C41.9559 13.6963 41.9021 13.804 41.8237 13.9117C41.7296 14.0418 41.6019 14.145 41.4451 14.2235C41.2883 14.302 41.1158 14.311 40.9253 14.2526C41.0149 14.3962 41.0508 14.533 41.0351 14.6654C41.0194 14.7977 40.941 14.9592 40.8021 15.1499L40.6677 15.3338C40.5758 15.4594 40.5198 15.5469 40.4974 15.5985C40.4616 15.6793 40.4571 15.7578 40.4885 15.8296L40.4392 15.8991L39.8119 15.4393C39.8388 15.3652 39.8612 15.3069 39.8813 15.2665C39.9239 15.1791 39.9732 15.0938 40.0292 15.0131L40.2107 14.7551C40.3361 14.5779 40.3899 14.4388 40.3697 14.3356C40.3518 14.2325 40.2577 14.1203 40.0897 13.9969L40.0874 13.9947ZM40.7976 13.7524C40.95 13.7838 41.0821 13.7233 41.1942 13.5685C41.3151 13.4025 41.342 13.25 41.2726 13.1131C41.2345 13.0346 41.1538 12.9516 41.0306 12.8619L40.3675 12.3751L39.8298 13.1109L40.4773 13.5842C40.605 13.6784 40.7125 13.7345 40.7999 13.7524H40.7976Z" fill="white"/>
<path d="M42.7485 17.3277L41.9061 16.4057L41.234 16.7018L40.7344 16.1545L44.0479 14.7593L44.5878 15.3492L42.8986 18.5233L42.381 17.9558L42.7485 17.3254V17.3277ZM43.0464 16.7871L43.7454 15.5758L42.4662 16.1523L43.0464 16.7871Z" fill="white"/>
<path d="M47.1509 18.9205L46.6468 19.2457L46.0956 18.3933L43.7567 19.9097L43.3691 19.3108L45.7081 17.7944L45.1547 16.9398L45.6588 16.6145L47.1486 18.9205H47.1509Z" fill="white"/>
<path d="M47.5461 19.7593L47.8485 20.3941L44.7927 21.8544L44.4902 21.2196L47.5461 19.7593Z" fill="white"/>
<path d="M45.9528 25.1652L45.7422 24.4878L47.6263 22.4488L45.33 23.1666L45.1328 22.5363L48.3656 21.5269L48.5874 22.2357L46.7324 24.2298L48.9885 23.5255L49.1856 24.1558L45.9528 25.1652Z" fill="white"/>
<path d="M46.3826 27.9402C46.2504 27.7652 46.172 27.5409 46.1451 27.2695C46.1026 26.8231 46.2213 26.4417 46.5036 26.1254C46.7859 25.798 47.1981 25.6095 47.738 25.5579C48.2847 25.5063 48.735 25.614 49.0934 25.8832C49.4519 26.1524 49.6535 26.5337 49.7006 27.0294C49.7409 27.4579 49.6647 27.8123 49.4743 28.0949C49.2816 28.3753 49.0262 28.5503 48.7036 28.6198L48.6387 27.9267C48.8627 27.8504 49.0128 27.7046 49.0845 27.4893C49.1226 27.3682 49.136 27.238 49.1226 27.0945C49.0957 26.8231 48.9725 26.61 48.7507 26.4552C48.5289 26.3004 48.213 26.2421 47.8008 26.2825C47.3863 26.3228 47.1018 26.444 46.9472 26.6503C46.7926 26.8567 46.7276 27.0788 46.75 27.321C46.7724 27.5588 46.8598 27.745 47.0099 27.8841C47.16 28.0231 47.3482 28.0972 47.5722 28.1129L47.4983 27.3323L48.0606 27.2784L48.1951 28.6849L46.3871 28.8576L46.3423 28.391L46.7568 28.2789C46.5842 28.1577 46.4588 28.0478 46.3826 27.9446V27.9402Z" fill="white"/>
<path d="M45.9797 33.54C45.8871 33.343 45.5927 33.355 45.5232 33.5697L45.5232 33.5697L45.1042 34.864L45.1041 34.8644C45.0437 35.0486 44.8736 35.1733 44.6797 35.1733H43.3199C43.0808 35.1733 42.9819 35.4777 43.1748 35.6182C43.1748 35.6182 43.1748 35.6182 43.1748 35.6182L44.2748 36.419L44.2756 36.4196C44.4301 36.5342 44.4973 36.7334 44.4365 36.9189C44.4365 36.919 44.4365 36.919 44.4365 36.9191L44.0176 38.213L44.0175 38.2134C43.9425 38.4421 44.2021 38.6297 44.3946 38.4895L44.3946 38.4895L45.4946 37.6887L45.4949 37.6885C45.6508 37.5757 45.8616 37.5757 46.0176 37.6885L46.0178 37.6887L47.1177 38.4894C47.3077 38.6273 47.5683 38.4401 47.4948 38.213C47.4948 38.213 47.4948 38.213 47.4948 38.213L47.076 36.9191C47.076 36.9191 47.076 36.919 47.076 36.919C47.0154 36.7342 47.0816 36.5319 47.2378 36.4189L47.2376 36.419L47.2965 36.4999L47.2379 36.4189L45.9797 33.54ZM45.9797 33.54L45.9893 33.5697L46.4082 34.864L46.4084 34.8644C46.4687 35.0486 46.6389 35.1733 46.8327 35.1733H48.1926C48.4303 35.1733 48.5299 35.4782 48.3376 35.6182M45.9797 33.54L48.3376 35.6182M48.3376 35.6182L48.3965 35.6991L48.3376 35.6182L48.3376 35.6182ZM46.0844 33.5397V33.6389H46.0867H46.1168L46.0867 33.5459L46.0847 33.5396L46.0844 33.5397Z" fill="white" stroke="#3171FB" stroke-width="0.2"/>
<path d="M39.1828 41.8352C39.0902 41.6382 38.7958 41.6501 38.7263 41.8649L38.7263 41.8649L38.3073 43.1592L38.3072 43.1595C38.2469 43.3437 38.0767 43.4684 37.8829 43.4684H36.523C36.2839 43.4684 36.185 43.7729 36.378 43.9134C36.378 43.9134 36.378 43.9134 36.378 43.9134L37.478 44.7142L37.4787 44.7147C37.6332 44.8294 37.7004 45.0286 37.6397 45.2141C37.6396 45.2142 37.6396 45.2142 37.6396 45.2143L37.2208 46.5082L37.2206 46.5086C37.1456 46.7372 37.4052 46.9248 37.5977 46.7846L37.5977 46.7846L38.6978 45.9838L38.698 45.9836C38.854 45.8709 39.0648 45.8709 39.2207 45.9836L39.221 45.9838L40.3209 46.7846L39.1828 41.8352ZM39.1828 41.8352L39.1924 41.8649L39.6114 43.1592L39.6115 43.1595C39.6719 43.3437 39.842 43.4684 40.0358 43.4684H41.3957C41.6334 43.4684 41.733 43.7734 41.5408 43.9134C41.5408 43.9134 41.5408 43.9134 41.5407 43.9134L40.441 44.714M39.1828 41.8352L40.441 44.714M40.441 44.714C40.4409 44.7141 40.4409 44.7141 40.4408 44.7141M40.441 44.714L40.4408 44.7141M40.4408 44.7141C40.2848 44.8271 40.2186 45.0293 40.279 45.214C40.2791 45.2141 40.2791 45.2142 40.2791 45.2143L40.6979 46.5082C40.7714 46.7353 40.5109 46.9224 40.321 46.7846L40.4408 44.7141Z" fill="white" stroke="#3171FB" stroke-width="0.2"/>
<path d="M29.2512 44.8141C29.1586 44.617 28.8641 44.629 28.7947 44.8438L28.7946 44.8438L28.3757 46.1381L28.3756 46.1384C28.3152 46.3226 28.145 46.4473 27.9512 46.4473H26.5913C26.3523 46.4473 26.2534 46.7518 26.4463 46.8923C26.4463 46.8923 26.4463 46.8923 26.4463 46.8923L27.5463 47.6931L27.547 47.6936C27.7016 47.8082 27.7687 48.0074 27.708 48.193C27.708 48.193 27.708 48.1931 27.708 48.1931L27.2891 49.4871L27.289 49.4875C27.214 49.7161 27.4736 49.9037 27.6661 49.7635L27.6661 49.7635L28.7661 48.9627L28.7664 48.9625C28.9223 48.8498 29.1331 48.8498 29.2891 48.9625L29.2893 48.9627L30.3892 49.7634L29.2512 44.8141ZM29.2512 44.8141L29.2608 44.8438L29.6797 46.1381L29.6798 46.1384C29.7402 46.3226 29.9104 46.4473 30.1042 46.4473H31.4641C31.7018 46.4473 31.8014 46.7523 31.6091 46.8923M29.2512 44.8141L31.6091 46.8923M31.6091 46.8923L30.5094 47.6929C30.5093 47.6929 30.5093 47.6929 30.5093 47.693C30.3531 47.8059 30.2869 48.0082 30.3474 48.193C30.3474 48.1931 30.3475 48.1931 30.3475 48.1931L30.7663 49.4871C30.8398 49.7141 30.5793 49.9012 30.3893 49.7635L31.6091 46.8923Z" fill="white" stroke="#3171FB" stroke-width="0.2"/>
<path d="M18.8552 41.8649C18.9247 41.6501 19.2191 41.6382 19.3117 41.8352L19.3213 41.8649L19.7403 43.1592L19.7404 43.1595C19.8008 43.3437 19.9709 43.4684 20.1648 43.4684H21.5246C21.7623 43.4684 21.8619 43.7734 21.6697 43.9134L20.5699 44.714C20.5699 44.7141 20.5698 44.7141 20.5697 44.7141C20.4137 44.8271 20.3475 45.0293 20.4079 45.214C20.408 45.2141 20.408 45.2142 20.408 45.2143L20.8268 46.5082C20.8268 46.5082 20.8269 46.5082 20.8269 46.5082C20.9003 46.7353 20.6397 46.9224 20.4498 46.7846L19.3499 45.9838L19.3496 45.9836C19.1937 45.8709 18.9829 45.8709 18.8269 45.9836L18.8267 45.9838L17.7266 46.7846L17.7266 46.7846C17.5341 46.9248 17.2745 46.7372 17.3496 46.5086L17.3497 46.5082L17.7685 45.2143C17.7685 45.2142 17.7686 45.2141 17.7686 45.2141C17.8293 45.0285 17.7621 44.8294 17.6076 44.7147L17.6069 44.7142L16.5069 43.9134C16.3139 43.7729 16.4128 43.4684 16.6519 43.4684H18.0118C18.2056 43.4684 18.3758 43.3437 18.4361 43.1595L18.4362 43.1592L18.8552 41.8649L18.8552 41.8649Z" fill="white" stroke="#3171FB" stroke-width="0.2"/>
<path d="M12.5148 33.54C12.4223 33.343 12.1278 33.355 12.0583 33.5697L12.0583 33.5697L11.6394 34.864L11.6393 34.8644C11.5789 35.0486 11.4087 35.1733 11.2149 35.1733H9.85501C9.61593 35.1733 9.51707 35.4777 9.70999 35.6182C9.71 35.6182 9.71 35.6182 9.71 35.6182L10.81 36.419L10.8107 36.4196C10.9653 36.5342 11.0324 36.7334 10.9717 36.9189C10.9717 36.919 10.9717 36.919 10.9716 36.9191L10.5528 38.213L10.5527 38.2134C10.4776 38.4421 10.7372 38.6297 10.9298 38.4895L10.9298 38.4895L12.0298 37.6887L12.03 37.6885C12.186 37.5757 12.3968 37.5757 12.5527 37.6885L12.553 37.6887L13.6529 38.4894L12.5148 33.54ZM12.5148 33.54L12.5245 33.5697L12.9434 34.864L12.9435 34.8644C13.0039 35.0486 13.1741 35.1733 13.3679 35.1733H14.7278C14.9654 35.1733 15.065 35.4782 14.8728 35.6182M12.5148 33.54L14.8728 35.6182M14.8728 35.6182L13.773 36.4189C13.773 36.4189 13.773 36.4189 13.7729 36.4189C13.6168 36.5319 13.5506 36.7341 13.6111 36.9189C13.6111 36.9189 13.6111 36.919 13.6111 36.9191L14.03 38.213C14.1034 38.4401 13.8429 38.6272 13.653 38.4895L14.8728 35.6182Z" fill="white" stroke="#3171FB" stroke-width="0.2"/>
</g>
<path d="M16.1767 31.6862C16.4638 32.3747 16.6516 32.6795 17.027 33.0293C17.6786 33.6163 18.529 33.9097 19.5781 33.9097C20.0751 33.9097 20.6162 33.8194 21.0579 33.6727C21.842 33.4131 22.5488 32.7698 22.9353 31.9571C23.3439 31.0993 23.5648 29.9932 23.5648 28.7968C23.5648 27.5553 23.3218 26.4831 22.8691 25.7494C22.2065 24.6659 21.0911 24.079 19.6885 24.079C17.5019 24.079 16 25.4447 16 27.4424C16 29.3386 17.2921 30.5688 19.2799 30.5688C20.2518 30.5688 20.8812 30.3318 21.4776 29.7562C21.4113 30.5237 21.3119 30.93 21.1021 31.2912C20.8039 31.7991 20.307 32.0813 19.6885 32.0813C19.2468 32.0813 18.8934 31.9345 18.6504 31.6637C18.54 31.5395 18.4737 31.4266 18.3854 31.1783L16.1767 31.6862ZM19.6554 28.7856C18.7498 28.7856 18.1535 28.2099 18.1535 27.3409C18.1535 26.4831 18.783 25.8962 19.6996 25.8962C20.6162 25.8962 21.2567 26.4831 21.2567 27.3296C21.2567 28.1986 20.6051 28.7856 19.6554 28.7856Z" fill="white"/>
<path d="M24.6077 31.6862C24.8949 32.3747 25.0826 32.6795 25.4581 33.0293C26.1096 33.6163 26.96 33.9097 28.0091 33.9097C28.5061 33.9097 29.0472 33.8194 29.489 33.6727C30.273 33.4131 30.9798 32.7698 31.3664 31.9571C31.775 31.0993 31.9958 29.9932 31.9958 28.7968C31.9958 27.5553 31.7529 26.4831 31.3001 25.7494C30.6375 24.6659 29.5221 24.079 28.1196 24.079C25.9329 24.079 24.431 25.4447 24.431 27.4424C24.431 29.3386 25.7231 30.5688 27.711 30.5688C28.6828 30.5688 29.3123 30.3318 29.9086 29.7562C29.8423 30.5237 29.743 30.93 29.5331 31.2912C29.235 31.7991 28.738 32.0813 28.1196 32.0813C27.6778 32.0813 27.3244 31.9345 27.0815 31.6637C26.971 31.5395 26.9048 31.4266 26.8164 31.1783L24.6077 31.6862ZM28.0864 28.7856C27.1809 28.7856 26.5845 28.2099 26.5845 27.3409C26.5845 26.4831 27.214 25.8962 28.1306 25.8962C29.0472 25.8962 29.6877 26.4831 29.6877 27.3296C29.6877 28.1986 29.0362 28.7856 28.0864 28.7856Z" fill="white"/>
<path d="M35.1481 29.395C35.8328 29.395 36.4402 29.1693 36.8488 28.7517C37.2905 28.3115 37.5224 27.623 37.5224 26.7427C37.5224 25.8849 37.3015 25.2077 36.8598 24.7562C36.4512 24.3386 35.8548 24.1129 35.1481 24.1129C34.4523 24.1129 33.856 24.3386 33.4363 24.7562C32.9946 25.2077 32.7627 25.8962 32.7627 26.754C32.7627 27.6117 32.9946 28.3115 33.4253 28.7404C33.856 29.1693 34.4413 29.395 35.1481 29.395ZM35.1481 25.3318C35.7002 25.3318 35.9874 25.8059 35.9874 26.7427C35.9874 27.702 35.7002 28.1874 35.1481 28.1874C34.5848 28.1874 34.2977 27.6907 34.2977 26.7427C34.2977 25.8172 34.5959 25.3318 35.1481 25.3318ZM40.6146 33.8758C41.3103 33.8758 41.9177 33.6501 42.3263 33.2325C42.7681 32.7923 43 32.0926 43 31.2235C43 29.5643 42.1276 28.5937 40.6256 28.5937C39.9189 28.5937 39.3225 28.8194 38.9029 29.237C38.4611 29.6885 38.2292 30.377 38.2292 31.2235C38.2292 32.0926 38.4611 32.7923 38.8918 33.2212C39.3225 33.6501 39.9189 33.8758 40.6146 33.8758ZM40.6256 29.8126C41.1778 29.8126 41.465 30.2867 41.465 31.2009C41.465 32.1828 41.1889 32.6682 40.6146 32.6682C40.0514 32.6682 39.7643 32.1716 39.7643 31.2009C39.7643 30.2867 40.0624 29.8126 40.6256 29.8126ZM33.9885 33.5485L34.5628 34L41.7631 24.4515L41.1778 24L33.9885 33.5485Z" fill="white"/>
<defs>
<clipPath id="clip0_4398_2052">
<rect width="41.4286" height="41.4286" fill="white" transform="translate(8.28516 8.28577)"/>
</clipPath>
</defs>
</svg>
